<?xml version="1.0" encoding="utf-8"?>
<!-- Generator: Adobe Illustrator 22.0.1, SVG Export Plug-In . SVG Version: 6.00 Build 0)  -->
<svg version="1.1" id="Layer_1" xmlns="http://www.w3.org/2000/svg" xmlns:xlink="http://www.w3.org/1999/xlink" x="0px" y="0px"
	 viewBox="0 0 1366 768" style="enable-background:new 0 0 1366 768;" xml:space="preserve">
<style type="text/css">
	.st0{fill:#B8A6E2;}
	.st1{fill:#907CD1;}
	.st2{opacity:0.34;fill:#7666BC;enable-background:new    ;}
	.st3{opacity:0.58;fill:#C3B8F2;enable-background:new    ;}
	.st4{fill:#7E72CC;}
	.st5{opacity:0.37;fill:#7666BC;enable-background:new    ;}
</style>
<g>
	<path class="st0" d="M794.4,297.6c0,12.4-1.5,24.4-4.3,35.9c-2,8.1-4.6,16-7.8,23.6c-3.6,8.5-8,16.7-13.1,24.4
		c-6.3,9.5-13.6,18.3-21.9,26.2c-27.4,26.3-64.6,42.4-105.6,42.4c-18.5,0-36.2-3.3-52.6-9.3c-11.6-4.3-22.6-9.9-32.7-16.8
		c-7.9-5.3-15.3-11.4-22-18.1c-8.5-8.4-15.9-17.7-22.3-27.9c-7.2-11.5-12.8-24.1-16.8-37.4c-0.7-2.5-1.4-5.1-2-7.7
		c-2.7-11.3-4.1-23.1-4.1-35.3c0-8.3,0.7-16.4,1.9-24.3c5-31.1,19.3-59,40.1-80.8c27.8-29.2,67-47.4,110.5-47.4
		c24.8,0,48.1,5.9,68.8,16.4c25.3,12.8,46.5,32.5,61.3,56.5c11.4,18.6,19,40,21.5,62.8c0.6,5.2,0.9,10.5,0.9,15.9
		C794.4,297,794.4,297.3,794.4,297.6z"/>
	<path class="st1" d="M671,147.9c36.7,27.9,60.4,71.9,60.4,121.5c0,84.2-68.3,152.5-152.5,152.5c-10,0-19.7-1-29.1-2.8
		c25.6,19.4,57.5,31,92.1,31c84.2,0,152.5-68.3,152.5-152.5C794.4,223.3,741.3,161.5,671,147.9z"/>
	<path class="st2" d="M793.5,280.8c-95.1,40.9-196.9,58.5-300,52.1c-2.7-11.3-4.1-23.1-4.1-35.3c0-8.3,0.7-16.4,1.9-24.3
		c5-31.1,19.3-59,40.1-80.8c61.2-0.5,121.5-10.9,179.3-31C736,174.3,757.2,194,772,218C783.5,236.6,791,258,793.5,280.8z"/>
	<path class="st3" d="M794.4,297.6c0,12.4-1.5,24.4-4.3,35.9c-0.3,1.2-0.6,2.4-0.9,3.6c-4.3,16-11.1,30.9-19.9,44.4
		c-68.6,25.4-140.1,39.7-212.7,42.6c-14.2-9.6-26.7-21.6-37-35.3c-2.6-3.5-5-7-7.3-10.7c-5.8-9.4-10.7-19.5-14.4-30.1
		c-0.8-2.4-1.6-4.8-2.3-7.3c-0.7-2.5-1.4-5.1-2-7.7c-2.7-11.3-4.1-23.1-4.1-35.3c0-8.3,0.7-16.4,1.9-24.3
		c96.8,4.6,192.2-14.2,280.7-55.3c11.4,18.6,19,40,21.5,62.8c0.5,4.7,0.8,9.4,0.9,14.2c0,0.6,0,1.1,0,1.7
		C794.4,297,794.4,297.3,794.4,297.6z"/>
	<path class="st4" d="M794.4,297.6c0,12.4-1.5,24.4-4.3,35.9c-0.3,1.2-0.6,2.4-0.9,3.6c-86.2,33.8-177,51.2-269.7,51.7
		c-2.6-3.5-5-7-7.3-10.7c-5.8-9.4-10.7-19.5-14.4-30.1c102.3,6,203-12,296.5-52.9c0,0.6,0,1.1,0,1.7
		C794.4,297,794.4,297.3,794.4,297.6z"/>
	<path class="st5" d="M782.4,357.1c-3.6,8.5-8,16.7-13.1,24.4c-6.3,9.5-13.6,18.3-21.9,26.2c-51.4,17.1-104.3,28.1-158.2,33.1
		c-11.6-4.3-22.6-9.9-32.7-16.8c-7.9-5.3-15.3-11.4-22-18.1C619.9,407,703.7,390.5,782.4,357.1z"/>
</g>
</svg>
